<svg width="38" height="36" viewBox="0 0 38 36" fill="none" xmlns="http://www.w3.org/2000/svg">
<path d="M19.0004 0.0141602C17.3432 0.0141602 15.7067 0.644859 14.4416 1.90815L0.592646 15.6983C-0.147907 16.4389 -0.147907 17.6813 0.592646 18.4219L3.84842 21.6776V28.424C3.84842 32.6079 7.24057 36 11.4244 36H26.5764C30.7602 36 34.1524 32.6079 34.1524 28.424V21.6776L37.4063 18.4219C38.1468 17.6813 38.1468 16.4389 37.4063 15.6983C36.7642 15.0563 34.4119 12.6926 32.2584 10.5486V5.69614C32.2584 4.65065 31.4099 3.80214 30.3644 3.80214C29.317 3.80214 28.4704 4.65065 28.4704 5.69614V6.82115C26.4438 4.80405 24.171 2.52181 23.5574 1.90815C22.2922 0.644859 20.6558 0.0141602 19.0004 0.0141602Z" fill="#FF5353"/>
</svg>
