<svg width="36" height="36" viewBox="0 0 36 36" fill="none" xmlns="http://www.w3.org/2000/svg">
<path d="M18 0C8.05885 0 0.0337644 8.04612 0.000104519 17.9721C-0.0335554 27.8837 8.06713 35.9802 18 36C27.9329 36.0197 36.0178 27.8137 36 17.9721C35.982 8.04612 27.941 0 18 0ZM18 3.59442C25.9529 3.59442 32.3998 10.032 32.4 17.9721C32.4 22.0158 30.713 25.6606 28.022 28.2737C26.6965 25.4108 23.8491 23.3638 20.5875 23.3638C19.9406 23.3638 16.0591 23.3638 15.4125 23.3638C12.1529 23.3638 9.31381 25.3856 7.98758 28.2504C5.29659 25.6372 3.60009 22.0158 3.60009 17.9721C3.60009 10.032 10.0471 3.59442 18 3.59442ZM18 7.18885C14.0235 7.18885 10.7999 10.4077 10.8001 14.3777C10.8001 18.3477 14.0235 21.5665 18 21.5665C21.9764 21.5665 25.2002 18.3477 25.2 14.3777C25.2 10.4077 21.9764 7.18885 18 7.18885Z" fill="#2151F5"/>
</svg>
